<?xml version="1.0" encoding="utf-8"?>
<?xml-stylesheet type="text/xsl" href="rss1.xsl"?>
<rss version="2.0" xmlns:atom="http://www.w3.org/2005/Atom" xmlns:content="http://purl.org/rss/1.0/modules/content/" xmlns:dc="http://purl.org/dc/elements/1.1/" xmlns:media="http://search.yahoo.com/mrss/">
<channel>
 <title>Getty</title>
 <link>http://www.gettyimg.com/</link>
 <atom:link href="http://www.gettyimg.com/" rel="self" type="application/rss+xml" />

 
                <item>
                <title><![CDATA[【Apple Music】WEB-RiP - Dillon Francis &amp; Good Times Ahead - LA On Acid [Apple HD Music Video]]]></title>
                <link><![CDATA[https://sharemania.us/threads/dillon-francis-good-times-ahead-la-on-acid-apple-hd-music-video.242887/]]></link>
                <description><![CDATA[<article>
<blockquote class="messageText SelectQuoteContainer ugc baseHtml">
<span style="font-size: 22px"><b>Dillon Francis &amp; Good Times Ahead - LA On Acid [Apple HD Music Video]</b></span><br>
<br>
<img src="https://imgur.com/lCTSTC3.jpg" class="bbCodeImage LbImage" alt="[​IMG]" data-url="https://imgur.com/lCTSTC3.jpg" style=""><br>
<br>
<div class="bbCodeBlock bbCodeCode">
<div class="type">Code:</div>
<pre>General
Format                         : MPEG-4
Codec ID                       : M4V  (isom/iso4/M4V /mp42)
File size                      : 234 MiB
Duration                       : 3 min 12 s
Overall bit rate mode          : Variable
Overall bit rate               : 10.2 Mb/s
Movie name                     : LA On Acid
Performer                      : Dillon Francis &amp; Good Times Ahead
Genre                          : Dance
ContentType                    : Music Video
Recorded date                  : UTC 2023-12-01 08:00:00
Encoded date                   : UTC 2024-03-17 19:14:11
Tagged date                    : UTC 2024-03-17 19:14:11
Copyright                      : ℗ Astralwerks; © 2023 IDGAFOS, under exclusive license to UMG Recordings, Inc.
Cover                          : Yes
Rating                         : None
GenreID                        : 1617
AppleStoreCountry              : Canada
AlbumTitleID                   : 366828522
AppleStoreCatalogID            : 1718993954

Video
ID                             : 2
Format                         : AVC
Format/Info                    : Advanced Video Codec
Format profile                 : High@L4
Format settings                : CABAC / 4 Ref Frames
Format settings, CABAC         : Yes
Format settings, Reference fra : 4 frames
Codec ID                       : avc1
Codec ID/Info                  : Advanced Video Coding
Duration                       : 3 min 12 s
Duration_FirstFrame            : 42 ms
Bit rate                       : 9 929 kb/s
Maximum bit rate               : 18.3 Mb/s
Width                          : 1 550 pixels
Height                         : 1 080 pixels
Display aspect ratio           : 1.435
Frame rate mode                : Constant
Frame rate                     : 23.976 (24000/1001) FPS
Color space                    : YUV
Chroma subsampling             : 4:2:0
Bit depth                      : 8 bits
Scan type                      : Progressive
Bits/(Pixel*Frame)             : 0.247
Stream size                    : 228 MiB (97%)
Title                          : Core Media Video
Language                       : English
Encoded date                   : UTC 2024-02-15 08:05:48
Tagged date                    : UTC 2024-03-17 19:14:49
Color range                    : Limited
Color primaries                : BT.709
Transfer characteristics       : BT.709
Matrix coefficients            : BT.709
Codec configuration box        : avcC

Audio
ID                             : 1
Format                         : AAC LC
Format/Info                    : Advanced Audio Codec Low Complexity
Codec ID                       : mp4a-40-2
Duration                       : 3 min 12 s
Duration_LastFrame             : -15 ms
Bit rate mode                  : Variable
Bit rate                       : 275 kb/s
Maximum bit rate               : 428 kb/s
Channel(s)                     : 2 channels
Channel layout                 : L R
Sampling rate                  : 48.0 kHz
Frame rate                     : 46.875 FPS (1024 SPF)
Compression mode               : Lossy
Stream size                    : 6.30 MiB (3%)
Title                          : Core Media Audio
Encoded date                   : UTC 2024-02-15 08:05:17
Tagged date                    : UTC 2024-03-17 19:14:49

Text
ID                             : 3-CC1
Format                         : EIA-608
Muxing mode                    : Final Cut
Codec ID                       : c608
Duration                       : 3 min 7 s
Duration of the visible conten : 3 min 5 s
Start time                     : 1 s 190 ms
End time                       : 3 min 6 s
End time (commands)            : 3 min 6 s
Bit rate mode                  : Constant
Maximum bit rate               : 1 376 b/s
Frame rate                     : 0.266 FPS
Stream size                    : 0.00 Byte (0%)
Title                          : Core Media Closed Caption
Language                       : English
Forced                         : No
Encoded date                   : UTC 2024-02-15 08:05:48
Tagged date                    : UTC 2024-03-17 19:14:49
Count of events                : 35
Count of PopOn events          : 35
Count of lines                 : 44
Maximum count of lines per eve : 2
Count of frames before first e : 0
Type of the first event        : PopOn
</pre>
</div>
<div class="bbCodeBlock bbCodeVfcHH HiddenContent">
<div class="attribution type">Hidden Content:</div>
<blockquote>You must reply before you can see the hidden data contained here.</blockquote>
</div>
<div class="messageTextEndMarker">&nbsp;</div>
</blockquote>
</article>]]></description>
                <author><![CDATA[Mu$iC @$YLUM]]></author>
                </item>

                </channel></rss>